<mxfile host="app.diagrams.net" agent="Mozilla/5.0 (X11; Linux x86_64) AppleWebKit/537.36 (KHTML, like Gecko) Chrome/124.0.0.0 Safari/537.36" version="26.0.4">
  <diagram name="Страница — 1" id="6Q___X1eC7dWIoZvIV_I">
    <mxGraphModel dx="1364" dy="759" grid="1" gridSize="10" guides="1" tooltips="1" connect="1" arrows="1" fold="1" page="1" pageScale="1" pageWidth="827" pageHeight="1169" math="0" shadow="0">
      <root>
        <mxCell id="0" />
        <mxCell id="1" parent="0" />
        <mxCell id="Msab3KX_JPUIHPLtt2a5-5" style="edgeStyle=orthogonalEdgeStyle;rounded=0;orthogonalLoop=1;jettySize=auto;html=1;entryX=0;entryY=0.5;entryDx=0;entryDy=0;" edge="1" parent="1" source="Msab3KX_JPUIHPLtt2a5-2" target="Msab3KX_JPUIHPLtt2a5-3">
          <mxGeometry relative="1" as="geometry" />
        </mxCell>
        <mxCell id="Msab3KX_JPUIHPLtt2a5-6" style="edgeStyle=orthogonalEdgeStyle;rounded=0;orthogonalLoop=1;jettySize=auto;html=1;entryX=0;entryY=0.5;entryDx=0;entryDy=0;" edge="1" parent="1" source="Msab3KX_JPUIHPLtt2a5-2" target="Msab3KX_JPUIHPLtt2a5-4">
          <mxGeometry relative="1" as="geometry" />
        </mxCell>
        <mxCell id="Msab3KX_JPUIHPLtt2a5-2" value="normalized data" style="shape=cylinder3;whiteSpace=wrap;html=1;boundedLbl=1;backgroundOutline=1;size=15;" vertex="1" parent="1">
          <mxGeometry x="80" y="160" width="150" height="80" as="geometry" />
        </mxCell>
        <mxCell id="Msab3KX_JPUIHPLtt2a5-8" style="edgeStyle=orthogonalEdgeStyle;rounded=0;orthogonalLoop=1;jettySize=auto;html=1;entryX=0;entryY=0.5;entryDx=0;entryDy=0;" edge="1" parent="1" source="Msab3KX_JPUIHPLtt2a5-3" target="Msab3KX_JPUIHPLtt2a5-7">
          <mxGeometry relative="1" as="geometry" />
        </mxCell>
        <mxCell id="Msab3KX_JPUIHPLtt2a5-3" value="stage 1" style="rounded=0;whiteSpace=wrap;html=1;" vertex="1" parent="1">
          <mxGeometry x="360" y="170" width="120" height="60" as="geometry" />
        </mxCell>
        <mxCell id="Msab3KX_JPUIHPLtt2a5-9" style="edgeStyle=orthogonalEdgeStyle;rounded=0;orthogonalLoop=1;jettySize=auto;html=1;entryX=0.5;entryY=1;entryDx=0;entryDy=0;" edge="1" parent="1" source="Msab3KX_JPUIHPLtt2a5-4" target="Msab3KX_JPUIHPLtt2a5-7">
          <mxGeometry relative="1" as="geometry" />
        </mxCell>
        <mxCell id="Msab3KX_JPUIHPLtt2a5-4" value="stage 2" style="rounded=0;whiteSpace=wrap;html=1;" vertex="1" parent="1">
          <mxGeometry x="354" y="310" width="120" height="60" as="geometry" />
        </mxCell>
        <mxCell id="Msab3KX_JPUIHPLtt2a5-11" style="edgeStyle=orthogonalEdgeStyle;rounded=0;orthogonalLoop=1;jettySize=auto;html=1;entryX=0;entryY=0.5;entryDx=0;entryDy=0;" edge="1" parent="1" source="Msab3KX_JPUIHPLtt2a5-7" target="Msab3KX_JPUIHPLtt2a5-10">
          <mxGeometry relative="1" as="geometry" />
        </mxCell>
        <mxCell id="Msab3KX_JPUIHPLtt2a5-7" value="stage 2" style="rounded=0;whiteSpace=wrap;html=1;" vertex="1" parent="1">
          <mxGeometry x="570" y="170" width="120" height="60" as="geometry" />
        </mxCell>
        <mxCell id="Msab3KX_JPUIHPLtt2a5-10" value="terminal stage" style="rounded=0;whiteSpace=wrap;html=1;" vertex="1" parent="1">
          <mxGeometry x="750" y="170" width="120" height="60" as="geometry" />
        </mxCell>
      </root>
    </mxGraphModel>
  </diagram>
</mxfile>
